<svg width="20" height="14" viewBox="0 0 20 14" fill="none" xmlns="http://www.w3.org/2000/svg">
<path fill-rule="evenodd" clip-rule="evenodd" d="M4.38802 1.02828C4.29315 0.865636 4.11902 0.765625 3.93073 0.765625H0.921238C0.512643 0.765625 0.258063 1.20886 0.463943 1.56179L7.25806 13.2088C7.35294 13.3715 7.52706 13.4715 7.71536 13.4715H11.3425C11.5308 13.4715 11.7049 13.3715 11.7998 13.2088L18.5939 1.56179C18.7998 1.20886 18.5452 0.765625 18.1366 0.765625H15.1271C14.9388 0.765625 14.7647 0.865636 14.6698 1.02828L9.98622 9.0572C9.78193 9.4074 9.27592 9.4074 9.07163 9.0572L4.38802 1.02828ZM-0.000488281 7.09719C-0.000488281 6.8818 0.283651 6.80393 0.393456 6.98923L4.04534 13.1518C4.12899 13.2929 4.02725 13.4715 3.86316 13.4715H0.528924C0.236538 13.4715 -0.000488281 13.2345 -0.000488281 12.9421V7.09719ZM15.1947 13.4715C15.0306 13.4715 14.9289 13.2929 15.0125 13.1518L18.6644 6.98923C18.7742 6.80393 19.0583 6.8818 19.0583 7.09719V12.9421C19.0583 13.2345 18.8213 13.4715 18.5289 13.4715H15.1947Z" fill="#5F47F1"/>
</svg>
