<svg xmlns="http://www.w3.org/2000/svg" xmlns:xlink="http://www.w3.org/1999/xlink" viewBox="0 0 68.26 68.26"><defs><linearGradient id="b" x1="-5.06" x2="61.8" y1="-5.34" y2="61.99" gradientUnits="userSpaceOnUse"><stop offset="0" stop-color="#f3742e"/><stop offset="1" stop-color="#ed0a72"/></linearGradient><linearGradient id="a" x1="16.59" x2="50.78" y1="12.99" y2="42.38" gradientUnits="userSpaceOnUse"><stop offset="0" stop-color="#fff" stop-opacity="0.5"/><stop offset="1" stop-color="#fff" stop-opacity="0"/></linearGradient><linearGradient xlink:href="#a" id="d" x1="45.49" x2="11.46" y1="-3.65" y2="40.68"/><clipPath id="c"><path d="M34.13 0C7.19 0 0 7.19 0 34.13s7.19 34.13 34.13 34.13 34.13-7.18 34.13-34.13S61.08 0 34.13 0Z" style="fill:none"/></clipPath></defs><path d="M34.13 0C7.19 0 0 7.19 0 34.13s7.19 34.13 34.13 34.13 34.13-7.18 34.13-34.13S61.08 0 34.13 0Z" style="fill:url(#b)"/><path d="m34.64 14.48-12.26 7.08a4.54 4.54 0 0 0 4.54 7.87l10.37-6-4.93 5.29v20.8a4.55 4.55 0 0 0 9.09 0v-31.1a4.64 4.64 0 0 0-.6-2.27 4.59 4.59 0 0 0-6.21-1.67Z" style="fill:#fff"/><path d="M34.13 0C7.19 0 0 7.19 0 34.13s7.19 34.13 34.13 34.13 34.13-7.18 34.13-34.13S61.08 0 34.13 0Z" style="fill:none"/><g style="clip-path:url(#c)"><path d="m23.85 68.26 44.42.01V8.38L23.85 39.2v29.06z" style="fill:url(#a)"/><path d="M23.85 68.26 0 68.27V11.89L23.85 39.2v29.06z" style="fill:url(#d)"/></g></svg>