<svg xmlns="http://www.w3.org/2000/svg" width="512" height="561.053" viewBox="0 0 135.46666 148.44527"><path fill="#ea4335" d="M63.249 70.894.579 136.11l.009.04c1.923 7.08 8.518 12.295 16.349 12.295 3.128 0 6.067-.83 8.588-2.285l.2-.118 70.533-39.915z"/><path fill="#fbbc04" d="m126.65 59.788-.06-.039-30.454-17.312-34.31 29.937 34.431 33.753 30.294-17.138c5.31-2.813 8.916-8.301 8.916-14.63 0-6.29-3.556-11.748-8.817-14.57z"/><path fill="#4285f4" d="M.574 12.331A16.036 16.036 0 0 0 0 16.602v115.241c.061 1.654.197 2.912.578 4.267l64.826-63.546Z"/><path fill="#34a853" d="m63.71 74.223 32.426-31.786L25.684 2.373A17.222 17.222 0 0 0 16.937 0C9.107 0 2.5 5.225.579 12.315l-.005.017z"/></svg>